<svg width="216" height="48" viewBox="0 0 216 48" fill="none" xmlns="http://www.w3.org/2000/svg">
<path d="M26.963 10H1.92593C0.862266 10 0 10.8357 0 11.8667V36.1333C0 37.1643 0.862266 38 1.92593 38H26.963C28.0266 38 28.8889 37.1643 28.8889 36.1333V11.8667C28.8889 10.8357 28.0266 10 26.963 10Z" fill="#0028FF"/>
<path fill-rule="evenodd" clip-rule="evenodd" d="M20.5724 26.7576C20.5724 26.7576 17.4355 26.7576 11.1616 26.7576V28.4546H20.5724C20.5724 27.3232 20.5724 26.7576 20.5724 26.7576Z" fill="white"/>
<path fill-rule="evenodd" clip-rule="evenodd" d="M17.7274 30.3638C17.7274 30.3638 14.5904 30.3638 8.31657 30.3638V32.0607H17.7274C17.7274 30.9294 17.7274 30.3638 17.7274 30.3638Z" fill="white"/>
<path fill-rule="evenodd" clip-rule="evenodd" d="M16.8519 23.9395C16.8519 23.9395 16.8519 21.2728 16.8519 15.9395H15.1011V24.8485C16.2683 24.2425 16.8519 23.9395 16.8519 23.9395Z" fill="white"/>
<path d="M40.1925 27.9953C41.4338 27.9953 42.3338 27.544 42.9079 26.8823L41.8528 25.8296C41.4494 26.3409 40.8597 26.6116 40.208 26.6116C39.1839 26.6116 38.2374 25.8145 38.2064 24.5513H43.5441C43.5907 24.2805 43.6062 23.8744 43.6062 23.5436C43.6062 21.0922 42.0701 19.9492 40.1925 19.9492C38.0202 19.9492 36.5926 21.4381 36.5926 23.9647C36.5926 26.4913 37.9891 27.9953 40.1925 27.9953ZM41.9924 23.2879H38.2064C38.2839 21.8592 39.1839 21.3328 40.1925 21.3328C41.0459 21.3328 41.9614 21.8592 41.9924 23.2879ZM50.078 24.1V22.5961H46.2764V24.1H50.078ZM55.991 27.9953C56.8601 27.9953 57.5274 27.7095 58.0392 27.0778V27.8147H59.6532V20.1297H58.0392V24.7467C58.0392 26.0702 57.2944 26.5214 56.3324 26.5214C55.4325 26.5214 54.7498 26.0101 54.7498 24.7167V20.1297H53.1358V24.7167C53.1358 27.123 54.3309 27.9953 55.991 27.9953ZM64.0144 27.8147L65.3337 25.8296C65.5041 25.5739 65.6438 25.3333 65.7367 25.1378C65.8455 25.3333 65.9697 25.5739 66.1402 25.8296L67.4594 27.8147H69.3059L66.6525 23.8143L69.0888 20.1297H67.2423L66.1402 21.799C65.9697 22.0547 65.8455 22.2953 65.7367 22.4909C65.6438 22.2953 65.5041 22.0698 65.3337 21.799L64.2316 20.1297H62.3851L64.806 23.8143L62.168 27.8147H64.0144ZM72.3792 27.9953C73.0311 27.9953 73.5588 27.499 73.5588 26.8974C73.5588 26.2958 73.0311 25.7845 72.3792 25.7845C71.7124 25.7845 71.2155 26.2958 71.2155 26.8974C71.2155 27.499 71.7124 27.9953 72.3792 27.9953ZM76.089 30.8377L77.7029 30.1158V27.153C78.091 27.6193 78.6804 27.9953 79.6115 27.9953C81.551 27.9953 82.8702 26.5064 82.8702 23.9797C82.8702 21.4531 81.6131 19.9492 79.6115 19.9492C78.6958 19.9492 78.1218 20.2951 77.7029 20.7463V20.1297H76.089V30.8377ZM79.3785 26.5214C78.6183 26.5214 78.0597 26.1003 77.7029 25.6341V22.2953C78.0597 21.7389 78.6341 21.423 79.3785 21.423C80.5735 21.423 81.2563 22.4909 81.2563 23.9797C81.2563 25.619 80.589 26.5214 79.3785 26.5214ZM87.2315 27.8147V23.4985C87.2315 21.9193 88.1314 21.4832 88.8454 21.4832C89.4193 21.4832 89.8074 21.6637 90.1021 21.8592L90.3346 20.4154C89.9778 20.1147 89.5281 19.9492 89.0004 19.9492C88.2089 19.9492 87.6037 20.2801 87.2315 21.0621V20.1297H85.6175V27.8147H87.2315ZM95.9222 27.9953C98.1409 27.9953 99.5531 26.5064 99.5531 23.9797C99.5531 21.4531 98.1409 19.9492 95.9222 19.9492C93.7031 19.9492 92.3068 21.4531 92.3068 23.9797C92.3068 26.5064 93.7031 27.9953 95.9222 27.9953ZM95.9222 26.5214C94.6964 26.5214 93.9207 25.5589 93.9207 23.9797C93.9207 22.4006 94.6964 21.423 95.9222 21.423C97.1635 21.423 97.9391 22.4006 97.9391 23.9797C97.9391 25.5589 97.1635 26.5214 95.9222 26.5214Z" fill="#000248"/>
</svg>
